<?xml version="1.0" standalone="no"?><!DOCTYPE svg PUBLIC "-//W3C//DTD SVG 1.1//EN" "http://www.w3.org/Graphics/SVG/1.1/DTD/svg11.dtd"><svg t="1608606194233" class="icon" viewBox="0 0 1024 1024" version="1.1" xmlns="http://www.w3.org/2000/svg" p-id="32920" xmlns:xlink="http://www.w3.org/1999/xlink" width="200" height="200"><defs><style type="text/css"></style></defs><path d="M691.2 609.745455h-9.309091v-179.2c0-81.454545-65.163636-146.618182-146.618182-146.618182s-146.618182 65.163636-146.618182 146.618182v179.2h-9.30909c-9.309091 0-16.290909 6.981818-16.29091 16.290909v37.236363c0 9.309091 6.981818 16.290909 16.29091 16.290909h311.854545c9.309091 0 16.290909-6.981818 16.290909-16.290909V628.363636c0-11.636364-6.981818-18.618182-16.290909-18.618181zM535.272727 716.8h51.2c0 27.927273-23.272727 51.2-51.2 51.2-27.927273 0-51.2-23.272727-51.2-51.2H535.272727z" fill="#FFB200" p-id="32921"></path><path d="M688.872727 707.490909H335.127273c-20.945455 0-37.236364-16.290909-37.236364-37.236364V628.363636c0-18.618182 11.636364-32.581818 30.254546-37.236363v-188.509091c0-102.4 83.781818-183.854545 183.854545-183.854546s183.854545 83.781818 183.854545 183.854546v188.509091c16.290909 4.654545 30.254545 18.618182 30.254546 37.236363v41.890909c0 20.945455-16.290909 37.236364-37.236364 37.236364z m-353.745454-81.454545c-2.327273 0-2.327273 0 0 0l-2.327273 44.218181c0 2.327273 0 2.327273 2.327273 2.327273h353.745454c2.327273 0 2.327273 0 2.327273-2.327273V628.363636c0-2.327273 0-2.327273-2.327273-2.327272h-27.927272v-221.090909c0-83.781818-67.490909-148.945455-148.945455-148.945455s-148.945455 67.490909-148.945455 148.945455v221.090909h-27.927272zM512 728.436364h58.181818c0 32.581818-25.6 58.181818-58.181818 58.181818s-58.181818-25.6-58.181818-58.181818H512z" fill="" p-id="32922"></path></svg>