<?xml version="1.0" standalone="no"?><!DOCTYPE svg PUBLIC "-//W3C//DTD SVG 1.1//EN" "http://www.w3.org/Graphics/SVG/1.1/DTD/svg11.dtd"><svg t="1608606302378" class="icon" viewBox="0 0 1024 1024" version="1.1" xmlns="http://www.w3.org/2000/svg" p-id="34607" xmlns:xlink="http://www.w3.org/1999/xlink" width="200" height="200"><defs><style type="text/css"></style></defs><path d="M111.4 495.4l-7.2-8.4c0-0.1 2.3 4.2 7.2 8.4z" fill="#EED6D3" p-id="34608"></path><path d="M875.6 724c0 128.5-162.8 160-363.6 160s-363.6-31.5-363.6-160S311.2 418.6 512 418.6 875.6 595.5 875.6 724z" fill="#C7F1FF" p-id="34609"></path><path d="M624.3 743.9L343 832.6c-21.1 6.6-43.5-5-50.2-26.1l-117-370.7c-6.6-21.1 5-43.5 26.1-50.2l281.3-88.7c21.1-6.6 43.5 5 50.2 26.1l116.9 370.8c6.7 21-5 43.5-26 50.1z" fill="#FFD500" p-id="34610"></path><path d="M474.5 428.3l-194.3 61.3c-9.8 3.1-20.2-2.3-23.2-12.1-3.1-9.8 2.3-20.2 12.1-23.2L463.3 393c9.8-3.1 20.2 2.3 23.2 12.1s-2.3 20.1-12 23.2zM458.1 530.5L308 577.9c-9.8 3.1-20.2-2.3-23.2-12.1s2.3-20.2 12.1-23.2L447 495.2c9.8-3.1 20.2 2.3 23.2 12.1 3.1 9.7-2.3 20.1-12.1 23.2zM483.2 610l-150.1 47.3c-9.8 3.1-20.2-2.3-23.2-12.1S312.2 625 322 622l150.1-47.3c9.8-3.1 20.2 2.3 23.2 12.1s-2.3 20.1-12.1 23.2zM508.3 689.5l-150.1 47.3c-9.8 3.1-20.2-2.3-23.2-12.1s2.3-20.2 12.1-23.2l150.1-47.3c9.8-3.1 20.2 2.3 23.2 12.1s-2.4 20.1-12.1 23.2z" fill="#FFFFFF" p-id="34611"></path><path d="M736.5 727.7l-351.7 69.2c-21.7 4.3-42.7-9.9-47-31.5l-90.3-459.3c-4.3-21.7 9.9-42.7 31.5-47l351.7-69.2c21.7-4.3 42.7 9.9 47 31.5L768 680.8c4.3 21.6-9.9 42.7-31.5 46.9z" fill="#00B1FF" p-id="34612"></path><path d="M608.4 345.3l-233.7 46c-11.7 2.3-23.1-5.3-25.4-17.1-2.3-11.7 5.3-23.1 17.1-25.4l233.7-46c11.7-2.3 23.1 5.3 25.4 17.1 2.3 11.7-5.4 23.1-17.1 25.4zM588.6 499.2L408 534.7c-11.7 2.3-23.1-5.3-25.4-17.1-2.3-11.7 5.3-23.1 17.1-25.4l180.6-35.5c11.7-2.3 23.1 5.3 25.4 17.1 2.2 11.7-5.4 23.1-17.1 25.4zM479.1 668.5l-41.2 8.7c-11.7 2.3-23.1-5.3-25.4-17.1-2.3-11.7 5.3-23.1 17.1-25.4l41.2-8.7c11.7-2.3 23.1 5.3 25.4 17.1 2.3 11.7-5.4 23.1-17.1 25.4z" fill="#0091F1" p-id="34613"></path><path d="M536.6 454.6s8.4 27.9 40.6 24.2c32.1-3.8 27.8 53.1 6.6 72.7s-58.5-10.9-80.1-18.7c-21.6-7.8-39.8 28-16.6 50.8 23.2 22.8 91.2 55.8 117.2 63.4s82.7 43.8 103.5 54.3c7.3 3.7 22.9 25.6 45.7 46.9 35.3 33 160.2-72.1 109.8-112.2-41.5-33-105.2-123-132.2-165-36.4-56.7-50.2-67.5-101.1-67.3-50.9 0.2-102.1-15.9-116.4 17.6-14.3 33.4-24.2 85.3-31.7 103.8s24.8 27.6 42.9-1.6c18.1-29.2 22.4-49.3 22.4-49.3" fill="#EED6D3" p-id="34614"></path><path d="M663.652 309.37l42.73 26.345-194.228 315.029-42.73-26.345z" fill="#FFD500" p-id="34615"></path><path d="M469.4 624.4l-1 25.7c-0.4 10.7 10.9 17.9 20.5 12.9l23.2-12.3-42.7-26.3zM701.8 300.2l-4.4-2.7c-10.6-6.5-24.4-3.2-31 7.3l-2.8 4.6 42.7 26.3 2.8-4.6c6.5-10.5 3.3-24.4-7.3-30.9z" fill="#FFB600" p-id="34616"></path><path d="M520.8 540.9l-29 47c10.3 8.6 25.6 18.3 42.1 27.3l35.4-57.4c-14.9 1.4-33-8.7-48.5-16.9z" fill="#EED6D3" p-id="34617"></path></svg>